<?xml version="1.0" encoding="UTF-8" standalone="no"?>
<svg width="121px" height="39px" viewBox="0 0 121 39" version="1.1" xmlns="http://www.w3.org/2000/svg" xmlns:xlink="http://www.w3.org/1999/xlink">
    <!-- Generator: Sketch 41.2 (35397) - http://www.bohemiancoding.com/sketch -->
    <title>Group 4</title>
    <desc>Created with Sketch.</desc>
    <defs>
        <radialGradient cx="50%" cy="0%" fx="50%" fy="0%" r="100%" id="radialGradient-1">
            <stop stop-color="#CB0000" offset="0%"></stop>
            <stop stop-color="#B73016" offset="100%"></stop>
        </radialGradient>
        <filter x="-50%" y="-50%" width="200%" height="200%" filterUnits="objectBoundingBox" id="filter-2">
            <feGaussianBlur stdDeviation="0.731272978" in="SourceGraphic"></feGaussianBlur>
        </filter>
        <filter x="-50%" y="-50%" width="200%" height="200%" filterUnits="objectBoundingBox" id="filter-3">
            <feGaussianBlur stdDeviation="0.731272978" in="SourceGraphic"></feGaussianBlur>
        </filter>
        <filter x="-50%" y="-50%" width="200%" height="200%" filterUnits="objectBoundingBox" id="filter-4">
            <feGaussianBlur stdDeviation="0.731272978" in="SourceGraphic"></feGaussianBlur>
        </filter>
        <filter x="-50%" y="-50%" width="200%" height="200%" filterUnits="objectBoundingBox" id="filter-5">
            <feGaussianBlur stdDeviation="0.731272978" in="SourceGraphic"></feGaussianBlur>
        </filter>
        <filter x="-50%" y="-50%" width="200%" height="200%" filterUnits="objectBoundingBox" id="filter-6">
            <feGaussianBlur stdDeviation="0.731272978" in="SourceGraphic"></feGaussianBlur>
        </filter>
        <filter x="-50%" y="-50%" width="200%" height="200%" filterUnits="objectBoundingBox" id="filter-7">
            <feGaussianBlur stdDeviation="0.731272978" in="SourceGraphic"></feGaussianBlur>
        </filter>
        <filter x="-50%" y="-50%" width="200%" height="200%" filterUnits="objectBoundingBox" id="filter-8">
            <feGaussianBlur stdDeviation="0.731272978" in="SourceGraphic"></feGaussianBlur>
        </filter>
    </defs>
    <g id="Welcome" stroke="none" stroke-width="1" fill="none" fill-rule="evenodd">
        <g id="プレオープン" transform="translate(-482.000000, -199.000000)">
            <g id="Group-4" transform="translate(482.000000, 199.000000)">
                <polygon id="Shape" fill="url(#radialGradient-1)" transform="translate(40.514844, 23.813084) rotate(-9.000000) translate(-40.514844, -23.813084) " points="50.2811018 9.2625132 40.6564625 9.2625132 40.2094922 9.2625132 30.7485864 9.2625132 23.2014224 20.3007659 40.5159262 38.3636555 41.2292256 37.619586 57.8282658 20.3007659"></polygon>
                <path d="M23.0881064,11.0393783 L23.571178,11.0095794 C24.8366586,10.9433596 25.7830218,10.6931434 26.4093885,10.2598768 C27.6177268,9.42834552 28.2300278,8.29598717 28.2467309,6.86280178 C28.2656318,5.21534809 27.5430024,4.38145178 26.0784031,4.36158584 L25.7122533,4.35685586 L23.0881064,11.0393783 Z M26.7939996,14.4567923 L30.2023137,23.4764003 C30.6436275,24.6404495 31.2304343,25.2274406 31.9631734,25.2373736 L32.6291002,25.2283866 L39.5859466,25.3215673 C41.1173583,25.3419063 41.8764708,25.9132884 41.8637237,27.0357138 C41.8540535,27.8596771 41.5802103,28.4949141 41.0421943,28.9418977 C40.5046178,29.3884082 39.7419888,29.6050415 38.7543074,29.5917976 L31.0814249,29.4891569 C28.9733163,29.460777 27.520585,28.3662585 26.7249894,26.2060745 L22.0586672,13.6768178 L19.760231,19.5571349 C18.6622211,22.3728948 17.882889,24.2762407 17.4217952,25.2666995 C16.961141,26.2576313 16.4314765,27.1728834 15.8336808,28.0129287 C13.6785398,31.0656608 10.9924155,32.569796 7.77486855,32.5267531 C5.43335589,32.4950622 3.54502505,31.6819778 2.10987603,30.086554 C0.674287449,28.4906571 -0.0285619489,26.4156128 0.00088827602,23.860475 C0.0395691685,20.5291468 1.21581994,17.6131112 3.53139882,15.1123682 C4.77885761,13.7799315 6.33356575,12.7109549 8.19596281,11.9059115 C10.0583599,11.1003951 11.8996583,10.7106444 13.7194184,10.7347673 C14.585343,10.7461193 15.2842364,10.9679556 15.8178568,11.3983842 C16.3505982,11.8297588 16.6134525,12.385532 16.6055405,13.0661768 C16.5971889,13.8064194 16.3018076,14.3938835 15.7198359,14.8276231 C15.3840155,15.0740553 14.7383083,15.2443348 13.783154,15.3389345 C11.5612005,15.5243499 9.7739674,16.0437022 8.42101527,16.8974645 C7.28124761,17.6225711 6.3766422,18.5657301 5.70851769,19.7269413 C5.04039318,20.8886256 4.69885849,22.1080157 4.6839136,23.3855846 C4.66852915,24.7350492 4.9748994,25.8049718 5.60434301,26.5953522 C6.23290752,27.3857327 7.09663426,27.7887274 8.19552325,27.8033903 C9.54891493,27.8213643 10.7295613,27.2225482 11.7370227,26.0055231 C12.7440446,24.788971 13.8591971,22.618854 15.0833594,19.4946991 L21.0186787,4.29394706 L19.3044118,4.27124313 C17.7730001,4.2504312 17.0138876,3.67384606 17.0270743,2.53864971 C17.036305,1.71515937 17.3101481,1.0827604 17.8481641,0.642398821 C18.3857406,0.201564241 19.1426554,-0.0122310698 20.1193479,0.000539889029 L25.6450013,0.0748006498 C27.0871832,0.0937205889 28.1434353,0.197780254 28.8124389,0.386033647 C29.4818821,0.573814042 30.1240728,0.952685822 30.7390111,1.52217599 C32.0124037,2.6975772 32.6374517,4.33651692 32.6132762,6.43757615 C32.5908588,8.348017 32.046689,10.0394596 30.9812062,11.5119038 C29.9152839,12.9843481 28.5196949,13.9658199 26.7939996,14.4567923 L26.7939996,14.4567923 Z" id="Fill-13" fill="#FFFFFF"></path>
                <path d="M22.6549432,14.699276 C23.1536225,14.699276 24.7282157,14.6556388 25.1257048,14.6556388 C25.5231938,14.6556388 26.9258252,14.4813993 26.9258252,14.4813993 L27.2173103,15.2292157 C27.2173103,15.2292157 26.1532769,15.9150321 25.5447018,15.9150321 C24.9361268,15.9150321 23.0217065,16.013448 23.0217065,16.013448 C23.0217065,16.013448 22.156264,14.699276 22.6549432,14.699276 Z" id="Path-22" fill="#000000" opacity="0.104186101" filter="url(#filter-2)"></path>
                <path d="M21.1548332,4.14221265 C21.6535125,4.14221265 23.2281057,4.11372972 23.6255948,4.11372972 C24.0230838,4.11372972 25.4257152,4 25.4257152,4 L25.7172003,4.48811528 C25.7172003,4.48811528 24.6531669,4.9357619 24.0445918,4.9357619 C23.4360168,4.9357619 21.5215965,5 21.5215965,5 C21.5215965,5 20.656154,4.14221265 21.1548332,4.14221265 Z" id="Path-22" fill="#000000" opacity="0.121735075" filter="url(#filter-3)"></path>
                <path d="M54.8689879,20.8823461 L56.799516,20.908361 C57.5652219,20.918294 58.1071939,21.0478956 58.4263113,21.2971658 C58.7454287,21.546436 58.9019105,21.9513227 58.8953171,22.5122989 C58.8869656,23.2407165 58.6329024,23.8073687 58.1348859,24.2127284 C57.6359903,24.6180881 56.9428112,24.8148554 56.0553484,24.8030305 L53.0760406,24.7632986 C52.1441827,24.7505276 51.5270467,24.3546279 51.2255115,23.5737074 C50.6061777,24.34233 49.8360763,24.7197827 48.9152073,24.7074848 L46.485344,24.6748479 C45.5086514,24.6620769 44.7025065,24.322464 44.0664695,23.6574282 C43.4308721,22.9923923 43.1183481,22.158023 43.1302161,21.1547932 C43.1368094,20.5815191 43.2884561,19.9150642 43.5860353,19.1549557 L45.9187568,13.2032158 C46.5701782,11.5519782 47.4453334,10.7336908 48.5437828,10.7483537 C49.0207007,10.7549757 49.4237731,10.9243092 49.7534398,11.2573001 C50.0822274,11.589818 50.2439839,11.9951777 50.2382697,12.4729062 C50.2343137,12.830966 50.1406883,13.2415287 49.9578332,13.7050672 L49.7692638,14.1861067 L47.9688441,18.7656779 L47.7789561,19.3006392 C47.6756605,19.6099802 47.6176392,19.8422225 47.6044525,19.99642 C47.5758814,20.5337462 47.8949988,20.8066663 48.5604859,20.8156533 C49.936295,20.8341003 50.8584826,20.2494741 51.327928,19.061302 L53.4720802,13.5726277 C54.1125127,11.909565 54.9990963,11.0856017 56.1305124,11.1007376 C56.5964413,11.1068866 56.9942392,11.279531 57.3230267,11.6181979 C57.6522539,11.9568649 57.8140104,12.3589136 57.8087357,12.8248171 C57.8043401,13.1951749 57.653133,13.766557 57.3555539,14.5384905 L54.8689879,20.8823461 Z" id="Fill-15" fill="#FFFFFF"></path>
                <path d="M67.957198,20.2852324 C68.5031261,21.057166 69.1475146,21.4478627 69.8912427,21.4577957 C70.4239841,21.4648906 70.8754077,21.3097471 71.2450739,20.9923652 C71.7602331,20.5572066 72.2147336,19.9063607 72.6072567,19.0403005 C73.0002194,18.1737672 73.2006568,17.3937928 73.2090083,16.701323 C73.2151621,16.1644697 73.075823,15.7231621 72.7914305,15.3792923 C72.5065985,15.0349494 72.1316575,14.8599399 71.6652891,14.8537909 C70.6112347,14.839601 69.7580573,15.6701863 69.1066359,17.3450739 L67.957198,20.2852324 Z M71.3703473,11.5536806 C71.8718802,11.3933341 72.3162709,11.3157623 72.7052776,11.3209653 C73.9918568,11.3379933 75.029208,11.8686976 75.8164521,12.9121322 C76.6032566,13.9555668 76.9874282,15.3012475 76.9680878,16.9487012 C76.9316047,20.1367109 75.7597494,22.60529 73.4534012,24.3534923 C72.6472563,24.9636604 71.8112215,25.2630684 70.9461761,25.2512435 L69.3646551,25.2304315 C68.2662056,25.2157686 67.3334687,24.779664 66.5668837,23.9211717 C66.090845,24.762636 65.3537103,25.1765097 64.3550399,25.1632657 C63.8776826,25.1566438 63.4746101,24.9844723 63.1458225,24.6453324 C62.8165954,24.3071385 62.6548389,23.8989408 62.6605531,23.4207393 C62.6645091,23.0626795 62.7581345,22.6521168 62.9414291,22.1885783 L63.1295589,21.7075389 L70.3176116,3.29938416 L70.506181,2.80037077 C71.0433179,1.47077205 71.8551771,0.812358174 72.9430772,0.827021127 C73.4419728,0.833643106 73.859111,1.00344956 74.1940524,1.33644049 C74.5285542,1.66943141 74.692948,2.07479111 74.6872338,2.55204657 C74.6828382,2.92240438 74.5892129,3.33296705 74.4067973,3.7842076 L74.2177884,4.28369399 L71.3703473,11.5536806 Z" id="Fill-17" fill="#FFFFFF"></path>
                <path d="M86.6944546,29.9071968 L84.3643704,29.8759789 C81.8118711,29.841923 80.5261709,30.6848063 80.5063909,32.4036828 C80.499358,33.0129048 80.6681474,33.5043502 81.0136381,33.879911 C81.3586892,34.2545258 81.8254973,34.4456172 82.4136227,34.4536582 C83.2232841,34.4645371 83.9459135,34.1339112 84.5806318,33.4617804 C85.21535,32.7891765 85.9195181,31.6047883 86.6944546,29.9071968 L86.6944546,29.9071968 Z M92.1823062,26.0759091 C97.6046641,28.1083836 115.909107,33.7605814 115.909107,33.7605814 C115.909107,33.7605814 117.159296,33.9928791 118.139522,34.3222253 C119.119748,34.6515714 119.222994,34.7294919 119.989434,35.1315311 C120.289389,35.288874 120.899755,35.7708202 120.895359,36.1208391 C120.887008,36.8492567 120.940852,37.2309263 120.442396,37.630137 C119.94394,38.0293477 118.156138,38.0223881 116.40499,37.630137 C108.729387,35.9108276 96.6969818,31.9779841 90.6719932,29.9606456 C90.1344167,31.7712838 89.3528869,33.0800706 88.8772877,34.0203916 C87.3779636,36.986092 85.2307345,38.4504953 82.4342818,38.4126554 C80.7367181,38.3899515 79.3178326,37.7977574 78.1767463,36.6360731 C77.0360995,35.4743889 76.4756661,34.0459335 76.4950066,32.3502339 C76.5086328,31.1682107 76.8352226,30.0708543 77.4738969,29.0586375 C78.1125712,28.0459478 78.9450895,27.2896232 79.9718913,26.7901368 C81.1547354,26.2206467 82.8944965,25.9515105 85.1911745,25.9822554 L87.9045512,26.0186763 L88.4021281,24.7354315 C87.5766427,25.0949103 86.819728,25.2694467 86.132263,25.2604598 C84.9445838,25.2443778 83.985913,24.9061839 83.2558112,24.245878 C82.5252698,23.5850992 82.1661529,22.7355939 82.1780209,21.6964163 C82.1850538,21.0640173 82.4347213,20.1180203 82.926584,18.8584254 L84.7964536,14.0645858 L84.9854625,13.5655724 C85.5335883,12.2236758 86.3678648,11.5600589 87.4887316,11.5751949 C87.9770778,11.5818168 88.3827877,11.7544613 88.7063006,12.0926552 C89.0293739,12.4313221 89.1884931,12.8574937 89.1827788,13.3711701 C89.1788228,13.717878 89.0280553,14.2764892 88.7304761,15.0488957 L87.0496155,19.3073009 C86.7867613,19.9969327 86.6478617,20.4424973 86.6351146,20.6458866 C86.5946755,21.2300398 86.9353311,21.5275558 87.6566418,21.5370158 C88.1669659,21.5441107 88.6904766,21.3899132 89.2267344,21.0744233 C89.7629922,20.7594063 90.105406,20.3994544 90.2544154,19.9950407 L92.5528516,14.1686455 L92.7247178,13.6691591 C93.2618548,12.3267894 94.0961313,11.6636456 95.227987,11.6787815 C95.7163332,11.6854035 96.122043,11.8608859 96.445556,12.2057018 C96.7686293,12.5505177 96.9277485,12.9733783 96.9220342,13.4747567 C96.9180782,13.8214646 96.8301671,14.2197293 96.6583009,14.6714429 L96.4530284,15.1524823 L92.1823062,26.0759091 Z" id="Fill-19" fill="#FFFFFF"></path>
                <path d="M86.1980031,26.2151632 C86.1980031,26.2151632 85.7886582,27.1228549 85.7886582,28.3569485 C85.7886582,28.9384397 85.128046,29.6039186 85.2973581,29.9796645 C85.4666702,30.3554105 86.1980031,29.9404832 86.1980031,29.9404832 C86.1980031,29.9404832 87.0593271,28.80636 87.4725851,28.036923 C87.8858432,27.2674859 88.0342379,26.5216337 88.3324682,25.9663646 L86.1980031,25.9663646 C85.2408397,25.9663646 86.1980031,26.2151632 86.1980031,26.2151632 Z" id="Path-13" fill="#000000" opacity="0.105235541" filter="url(#filter-4)"></path>
                <path d="M68.2309906,20.6763889 L66.908917,24.2164849 C66.908917,24.2164849 67.0973438,24.780736 67.3336488,24.780736 C67.5699538,24.780736 68.8734267,21.3103732 68.8734267,21.3103732 L68.2309906,20.6763889 Z" id="Path-21" fill="#000000" opacity="0.105235541" filter="url(#filter-5)"></path>
                <path d="M72.3220736,11 L71,14.540096 C71,14.540096 71.1884268,15.1043471 71.4247318,15.1043471 C71.6610368,15.1043471 72.9645097,11.6339843 72.9645097,11.6339843 L72.3220736,11 Z" id="Path-21" fill="#000000" opacity="0.105235541" filter="url(#filter-6)"></path>
                <path d="M49.9619834,20.0891547 C50.2866704,20.0006854 50.6589174,19.7441299 50.7993722,19.6456875 C50.939827,19.547245 51.5235627,18.657173 51.5235627,18.657173 C51.5235627,18.657173 50.9861076,20.8239151 50.9861076,21.1497221 C50.9861076,21.475529 51.4783947,23.0265156 51.4783947,23.0265156 C51.4783947,23.0265156 51.2385925,23.374678 51.0189823,23.4693665 C50.7993722,23.564055 50.6199238,23.7042949 50.6199238,23.7042949 C50.6199238,23.7042949 50.0856393,21.7203744 50.0856393,21.358485 C50.0856393,20.9965956 49.6372964,20.177624 49.9619834,20.0891547 Z" id="Path-23" fill="#000000" opacity="0.104186101" filter="url(#filter-7)"></path>
                <path d="M88.8003015,24.2304575 C88.8003015,24.2304575 87.926386,24.8867141 87.7007983,24.5585858 C87.4752105,24.2304575 88.6792686,22.0554692 88.7397851,21.8004868 C88.8003015,21.5455044 89.0479085,20.7911324 89.0479085,20.7911324 C89.0479085,20.7911324 89.1921271,20.8663346 89.5619335,20.6082677 C89.9317399,20.3502008 90.4940323,19.8546301 90.4940323,19.8546301 L88.8003015,24.2304575 Z" id="Path-24" fill="#000000" opacity="0.105235541" filter="url(#filter-8)"></path>
                <path d="M48.7835657,34.5451704 L48.7902723,34.5451704 L51.2046493,32.3970182 L51.902136,32.3970182 L49.3066807,34.6127224 L51.2918351,37.1796968 L50.6681211,37.1796968 L48.7701525,34.632988 L48.7634459,34.632988 L48.3208101,37.1796968 L47.8446414,37.1796968 L48.6829667,32.3970182 L49.1591355,32.3970182 L48.7835657,34.5451704 Z M51.7860059,37.1796968 L51.2360645,37.1796968 L54.2942753,32.3970182 L54.7637375,32.3970182 L55.7496081,37.1796968 L55.2466129,37.1796968 L54.991762,35.9232304 L52.5639718,35.9232304 L51.7860059,37.1796968 Z M52.8389425,35.4773875 L54.9179893,35.4773875 L54.4217007,32.9374338 L52.8389425,35.4773875 Z M60.0598358,36.497422 L60.073249,36.497422 L60.7908555,32.3970182 L61.2670242,32.3970182 L60.4286989,37.1796968 L59.8318113,37.1796968 L57.8868965,33.0252514 L57.8734833,33.0252514 L57.1491702,37.1796968 L56.6730014,37.1796968 L57.5113267,32.3970182 L58.1082144,32.3970182 L60.0598358,36.497422 Z M64.8797652,33.1400897 C64.7948145,33.0139921 64.6718614,32.9081618 64.5109021,32.8225955 C64.3499428,32.7370293 64.1621598,32.6942468 63.9475475,32.6942468 C63.8089437,32.6942468 63.6703419,32.7133863 63.5317381,32.751666 C63.3931343,32.7899456 63.2679456,32.84849 63.1561684,32.927301 C63.0443911,33.0061121 62.9538529,33.1051873 62.8845509,33.2245297 C62.815249,33.3438721 62.7805986,33.4868556 62.7805986,33.6534846 C62.7805986,33.7795822 62.8029537,33.8876643 62.8476646,33.977734 C62.8923755,34.0678037 62.9538521,34.1466135 63.0320962,34.2141658 C63.1103403,34.2817181 63.2019963,34.3402626 63.3070669,34.3898009 C63.4121375,34.4393393 63.5250309,34.4866252 63.6457504,34.53166 C63.7843542,34.5857019 63.9251914,34.646498 64.0682663,34.7140503 C64.2113412,34.7816026 64.3410009,34.8649159 64.4572493,34.9639926 C64.5734976,35.0630693 64.6673891,35.1790323 64.7389266,35.3118852 C64.810464,35.444738 64.8462322,35.6012318 64.8462322,35.7813713 C64.8462322,35.9434968 64.8171706,36.1135008 64.7590464,36.2913885 C64.7009222,36.4692763 64.6047952,36.633651 64.4706625,36.7845178 C64.3365298,36.9353846 64.1599243,37.0592286 63.9408409,37.1560536 C63.7217574,37.2528786 63.4512605,37.3012903 63.1293419,37.3012903 C62.838721,37.3012903 62.5592821,37.24162 62.2910166,37.1222776 C62.0227512,37.0029352 61.8170841,36.826176 61.6740092,36.5919948 L62.1032317,36.3150317 C62.1926535,36.4726537 62.3267843,36.6066305 62.5056279,36.7169659 C62.6844715,36.8273013 62.8990807,36.8824682 63.1494618,36.8824682 C63.310421,36.8824682 63.4635536,36.8588252 63.608864,36.8115386 C63.7541745,36.764252 63.8815987,36.6967007 63.9911404,36.6088827 C64.1006821,36.5210648 64.1867493,36.4141086 64.2493446,36.2880109 C64.3119399,36.1619133 64.343237,36.0223073 64.343237,35.8691888 C64.343237,35.7340842 64.3164109,35.6169953 64.2627578,35.5179186 C64.2091047,35.4188419 64.1364506,35.333277 64.0447932,35.2612212 C63.9531358,35.1891654 63.8480668,35.1261175 63.7295829,35.0720757 C63.611099,35.0180339 63.4847926,34.9662446 63.3506598,34.9167062 C63.2165271,34.8671679 63.0846319,34.8086234 62.9549703,34.7410711 C62.8253086,34.6735188 62.7112975,34.5924573 62.6129335,34.4978841 C62.5145695,34.4033109 62.4352089,34.2918512 62.3748491,34.1635019 C62.3144894,34.0351525 62.28431,33.8854138 62.28431,33.7142814 C62.28431,33.5116245 62.3223137,33.3224809 62.3983222,33.1468449 C62.4743308,32.9712089 62.5838709,32.8192186 62.7269458,32.6908692 C62.8700207,32.5625198 63.0466261,32.4611929 63.2567674,32.3868854 C63.4669087,32.3125779 63.7061084,32.2754247 63.9743739,32.2754247 C64.2962924,32.2754247 64.5701426,32.3283398 64.7959327,32.4341718 C65.0217228,32.5400037 65.1860329,32.6762321 65.288868,32.8428611 L64.8797652,33.1400897 Z M65.7360925,37.1796968 L65.1861511,37.1796968 L68.2443619,32.3970182 L68.7138241,32.3970182 L69.6996947,37.1796968 L69.1966995,37.1796968 L68.9418486,35.9232304 L66.5140585,35.9232304 L65.7360925,37.1796968 Z M66.7890292,35.4773875 L68.868076,35.4773875 L68.3717874,32.9374338 L66.7890292,35.4773875 Z M71.0925502,37.1796968 L70.6163814,37.1796968 L71.4547068,32.3970182 L71.9308756,32.3970182 L71.0925502,37.1796968 Z" id="KANSAI" fill="#FFFFFF"></path>
            </g>
        </g>
    </g>
</svg>