<?xml version="1.0" encoding="UTF-8" standalone="no"?>
<svg width="651px" height="58px" viewBox="0 0 651 58" version="1.1" xmlns="http://www.w3.org/2000/svg" xmlns:xlink="http://www.w3.org/1999/xlink">
    <!-- Generator: Sketch 41.2 (35397) - http://www.bohemiancoding.com/sketch -->
    <title>img-gems</title>
    <desc>Created with Sketch.</desc>
    <defs></defs>
    <g id="Welcome" stroke="none" stroke-width="1" fill="none" fill-rule="evenodd">
        <g id="プレオープン" transform="translate(-193.000000, -1182.000000)" stroke="#D53636">
            <g id="img-gems" transform="translate(194.000000, 1178.000000)">
                <g id="Group-5">
                    <g id="Group-16" transform="translate(51.563473, 45.033250) rotate(245.000000) translate(-51.563473, -45.033250) translate(18.063473, 11.033250)">
                        <path d="M51.2402804,49.3256505 L40.248632,50.6612807 L10.3324954,29.0070083 C15.4250249,25.6609949 21.1589724,22.2578227 27.5286877,19.0180804 C32.6865628,16.3945995 46.5167958,9.34014187 46.5167958,9.34014187 L56.6794493,19.0305867 C56.6794493,19.0305867 55.0563525,30.2919729 54.3056159,35.6662936 C53.586078,40.8161408 52.6284958,45.4609923 51.6033571,49.5398045 C47.6727988,52.4069043 43.7422405,55.2742816 39.8116823,58.1413813 C35.9491718,54.7609617 32.0102611,51.1582883 28.0200075,47.3200428 C21.5972297,41.1421684 15.710973,34.9981453 10.3324954,29.0070083 C14.200639,27.9315137 17.8249966,26.3473263 21.6931815,25.2718784 C28.4702903,23.3876799 35.4912448,22.0122415 42.2682812,20.1279613 L55.7884428,19.4845772 C55.7884428,19.4845772 47.1802328,28.9640923 42.3488397,32.7562778 C45.9519333,38.2132846 51.2402804,49.3256505 51.2402804,49.3256505 Z" id="Stroke-1" transform="translate(33.505972, 33.740762) rotate(-38.000000) translate(-33.505972, -33.740762) "></path>
                        <path d="M42.1266744,5.31925619 L38.6102479,52.3428411" id="Stroke-3" transform="translate(40.368461, 28.831049) rotate(-38.000000) translate(-40.368461, -28.831049) "></path>
                        <path d="M9.94466021,33.8077348 C9.94466021,33.8077348 41.0502759,37.8242448 42.0329155,37.8242448 L9.94466021,33.8077348 Z" id="Stroke-5" transform="translate(25.988788, 35.815990) rotate(-38.000000) translate(-25.988788, -35.815990) "></path>
                    </g>
                    <g id="Group-24" transform="translate(0.000000, 4.579832)">
                        <path d="M18.7742858,1.98908141 C18.6084552,3.02735461 18.0599297,4.1157411 17.6102044,4.91112373 C17.1604791,5.70650636 15.581502,7.52714243 15.581502,7.52714243 C15.581502,7.52714243 17.1778939,9.28523591 17.9760898,12.4325442 C18.0088393,12.5616763 18.1956926,13.6765654 18.2341975,13.7765224 C18.2510956,13.820389 18.6320559,12.7469685 19.3782761,11.7079537 C20.1244964,10.6689389 21.7386244,8.91811211 22.1863363,7.89176968 C22.6873494,6.74323851 21.7678457,6.26606828 20.9728642,5.11918623 C20.1778827,3.97230418 19.8998143,3.82314596 19.6554846,2.24083615 C19.0413039,-1.73667491 18.955182,0.856481084 18.7742858,1.98908141 Z" id="Path-14"></path>
                        <path d="M4.96503752,13.4201681 C4.70715755,15.034767 3.69935925,16.2497176 3,17.4866021 C2.30064075,18.7234865 0,21.2311691 0,21.2311691 C0,21.2311691 2.48251876,23.965147 3.72377814,28.8594664 C3.77470623,29.0602773 4.90515931,31.264727 4.96503752,31.4201681 C4.9913154,31.4883842 4.74385851,29.3484217 5.90429148,27.7326695 C7.06472446,26.1169174 11,21.4201681 11,21.4201681 C11,21.4201681 9.76801048,19.5530361 8.38400524,17.4866021 C7,15.4201681 7.37995251,15.8807881 7,13.4201681 C6.72739776,11.6547619 6.22883832,9.60705105 6.22883832,9.60705105 C6.22883832,9.60705105 5.16605562,12.161584 4.96503752,13.4201681 Z" id="Path-14"></path>
                    </g>
                    <g id="Group-24" transform="translate(644.000000, 20.000000)">
                        <path d="M2.22106696,1.33514777 C2.10570656,2.07198681 1.72412361,2.84439013 1.41127124,3.40885522 C1.09841888,3.97332031 0,5.26538462 0,5.26538462 C0,5.26538462 1.11053348,6.51306386 1.66580022,8.74663746 C1.68858246,8.83827959 1.81856738,9.62949126 1.84535338,9.70042843 C1.85710857,9.73155959 2.12212442,8.96977728 2.64123416,8.23241197 C3.1603439,7.49504666 4.28321558,6.25252439 4.59466732,5.52415234 C4.9431982,4.7090657 4.30354343,4.37042877 3.75051284,3.55651247 C3.19748226,2.74259618 3.00404336,2.63674196 2.83407487,1.51381242 C2.40681873,-1.30893737 2.34690784,0.531366887 2.22106696,1.33514777 Z" id="Path-14"></path>
                    </g>
                    <g id="Group-16" transform="translate(96.096322, 53.378584) rotate(352.000000) translate(-96.096322, -53.378584) translate(77.096322, 34.378584)">
                        <path d="M28.4667223,27.4030427 L22.3602724,28.1450569 L5.74025501,16.1149479 C8.56942813,14.2560581 11.7549433,12.3654135 15.2936616,10.565563 C18.1591377,9.10807877 25.8425734,5.18894944 25.8425734,5.18894944 L31.4884721,10.572511 C31.4884721,10.572511 30.5867548,16.8288146 30.1696804,19.8145378 C29.7699386,22.675554 29.2379503,25.256018 28.6684308,27.5220168 C26.484795,29.1148444 24.3011592,30.7078261 22.1175234,32.3006537 C19.9716918,30.4226494 17.7834158,28.4211713 15.5666161,26.2888201 C11.9984187,22.8566798 8.72828764,19.4433456 5.74025501,16.1149479 C7.88921612,15.517453 9.90274106,14.637352 12.0517251,14.039883 C15.8167723,12.9931098 19.7172888,12.22898 23.4822958,11.1821614 L30.9934703,10.824727 C30.9934703,10.824727 26.2111482,16.0911058 23.5270504,18.1978681 C25.528762,21.2295278 28.4667223,27.4030427 28.4667223,27.4030427 Z" id="Stroke-1" transform="translate(18.614364, 18.744802) rotate(-38.000000) translate(-18.614364, -18.744802) "></path>
                        <path d="M23.4036256,2.95513193 L21.4500623,29.0792538" id="Stroke-3" transform="translate(22.426844, 16.017193) rotate(-38.000000) translate(-22.426844, -16.017193) "></path>
                        <path d="M5.52479178,18.7820088 C5.52479178,18.7820088 22.8056286,21.0133954 23.3515375,21.0133954 L5.52479178,18.7820088 Z" id="Stroke-5" transform="translate(14.438165, 19.897702) rotate(-38.000000) translate(-14.438165, -19.897702) "></path>
                    </g>
                    <g id="Group-16" transform="translate(623.515551, 50.915973) rotate(352.000000) translate(-623.515551, -50.915973) translate(598.515551, 25.415973)">
                        <path d="M38.2765262,36.8462963 L30.0657569,37.844013 L7.71838146,21.668256 C11.5225047,19.1687816 15.8057676,16.6266095 20.5639495,14.2065197 C24.4168859,12.2467776 34.7480798,6.97709267 34.7480798,6.97709267 L42.3395893,14.2158619 C42.3395893,14.2158619 41.1271348,22.6281255 40.566334,26.6427469 C40.0288387,30.4896865 39.3135241,33.9593939 38.5477447,37.0062695 C35.6116149,39.1479951 32.6754851,41.289928 29.7393552,43.4316536 C26.8540571,40.9064776 23.911688,38.2152781 20.9309657,35.3481059 C16.1331461,30.7332293 11.7361081,26.1436396 7.71838146,21.668256 C10.6078875,20.8648607 13.3152853,19.6814717 16.2048222,18.8781113 C21.2673273,17.4706136 26.5119853,16.4431602 31.5744364,15.0356015 L41.6740068,14.5549932 C41.6740068,14.5549932 35.2436677,21.6361977 31.6346136,24.468963 C34.3261272,28.545351 38.2765262,36.8462963 38.2765262,36.8462963 Z" id="Stroke-1" transform="translate(25.028985, 25.204373) rotate(-38.000000) translate(-25.028985, -25.204373) "></path>
                        <path d="M31.468656,3.97348819 L28.8418829,39.1001398" id="Stroke-3" transform="translate(30.155269, 21.536814) rotate(-38.000000) translate(-30.155269, -21.536814) "></path>
                        <path d="M7.42866831,25.2544021 C7.42866831,25.2544021 30.6645855,28.254738 31.398618,28.254738 L7.42866831,25.2544021 Z" id="Stroke-5" transform="translate(19.413643, 26.754570) rotate(-38.000000) translate(-19.413643, -26.754570) "></path>
                    </g>
                </g>
            </g>
        </g>
    </g>
</svg>