<?xml version="1.0" encoding="UTF-8" standalone="no"?>
<svg width="204px" height="154px" viewBox="0 0 204 154" version="1.1" xmlns="http://www.w3.org/2000/svg" xmlns:xlink="http://www.w3.org/1999/xlink">
    <!-- Generator: Sketch 43.2 (39069) - http://www.bohemiancoding.com/sketch -->
    <title>logo</title>
    <desc>Created with Sketch.</desc>
    <defs>
        <filter x="-2.0%" y="-2.0%" width="104.5%" height="106.0%" filterUnits="objectBoundingBox" id="filter-1">
            <feOffset dx="0" dy="2" in="SourceAlpha" result="shadowOffsetOuter1"></feOffset>
            <feGaussianBlur stdDeviation="1" in="shadowOffsetOuter1" result="shadowBlurOuter1"></feGaussianBlur>
            <feColorMatrix values="0 0 0 0 0   0 0 0 0 0   0 0 0 0 0  0 0 0 0.254755435 0" type="matrix" in="shadowBlurOuter1" result="shadowMatrixOuter1"></feColorMatrix>
            <feMerge>
                <feMergeNode in="shadowMatrixOuter1"></feMergeNode>
                <feMergeNode in="SourceGraphic"></feMergeNode>
            </feMerge>
        </filter>
    </defs>
    <g id="Welcome" stroke="none" stroke-width="1" fill="none" fill-rule="evenodd">
        <g id="開催前" transform="translate(-432.000000, -47.000000)">
            <g id="logo" filter="url(#filter-1)" transform="translate(434.000000, 47.000000)">
                <polygon id="Path-8" fill="#B12C2C" points="86.0465116 37.3539364 111.103478 16.2615385 155.213359 29.1984663 165.348536 57.3777735 114.904262 86.8162177"></polygon>
                <g id="名称未設定-2">
                    <g id="Group" transform="translate(0.000000, 0.039531)">
                        <path d="M89.2491468,112.230442 L92.0477816,112.196402 C94.1979522,112.162362 95.2559727,112.877205 95.2901024,114.272852 C95.2901024,115.260017 94.9146758,116.008901 94.1638225,116.587584 C93.4129693,117.132227 92.3549488,117.438588 91.0238908,117.438588 L87.7474403,117.472628 C86.2798635,117.472628 85.2901024,116.962026 84.7440273,115.87274 C83.4812287,116.962026 82.2525597,117.506668 81.0580205,117.506668 L78.1569966,117.540709 C76.2798635,117.540709 74.778157,116.927986 73.6177474,115.702539 C72.4573379,114.443053 71.8771331,112.809125 71.8430034,110.766715 C71.8088737,107.703099 72.9351536,104.945846 75.1535836,102.494953 C77.3720137,100.044061 79.9317406,98.8186148 82.7645051,98.7845747 C84.9488055,98.7505345 86.552901,99.4653781 87.5426621,100.895065 C88.3959044,99.7036593 89.4880546,99.0909362 90.8532423,99.056896 C91.6040956,99.056896 92.21843,99.261137 92.7303754,99.7036593 C93.2423208,100.146181 93.4812287,100.690824 93.4812287,101.337587 C93.4812287,101.78011 93.3447099,102.324752 93.0716724,102.937475 L92.7986348,103.584239 L89.2491468,112.230442 Z M80,112.434683 L80.6484642,112.434683 C82.0477816,112.434683 82.9692833,111.89004 83.4129693,110.800755 L85.1535836,106.647854 C85.3924915,106.103211 85.4948805,105.660689 85.4948805,105.286247 C85.4948805,104.843725 85.2559727,104.469283 84.8122867,104.162922 C84.3686007,103.85656 83.8225256,103.686359 83.1740614,103.686359 C81.9453925,103.686359 80.7167235,104.401203 79.556314,105.76281 C78.3959044,107.124416 77.8156997,108.554104 77.8156997,110.017831 C77.883959,111.617719 78.6006826,112.434683 80,112.434683 Z" id="Shape" fill="#FFFFFF" fill-rule="nonzero"></path>
                        <path d="M106.552901,113.149527 L108.976109,113.013366 C110.784983,112.911245 111.706485,113.421848 111.774744,114.647294 C111.808874,115.498298 111.535836,116.179102 110.955631,116.689704 C110.341297,117.200307 109.488055,117.506668 108.327645,117.574749 L104.948805,117.77899 C103.686007,117.84707 102.696246,117.642829 101.945392,117.166267 C101.194539,116.723744 100.784983,116.042941 100.750853,115.191937 C100.716724,114.749415 100.853242,114.136692 101.09215,113.421848 L104.129693,104.809685 L104.334471,104.231002 C104.880546,102.631114 105.904437,101.78011 107.372014,101.712029 C107.986348,101.677989 108.498294,101.84819 108.94198,102.188592 C109.385666,102.563034 109.658703,103.005556 109.658703,103.550199 C109.692833,103.992721 109.522184,104.707564 109.215017,105.660689 L106.552901,113.149527 Z M106.791809,100.656784 L105.290102,97.8654901 L106.894198,95.1422764 L110.03413,95.2103568 L111.535836,98.0016507 L109.931741,100.724864 L106.791809,100.656784 Z" id="Shape" fill="#FFFFFF" fill-rule="nonzero"></path>
                        <path d="M151.12628,113.932451 L153.549488,113.79629 C155.358362,113.694169 156.279863,114.204772 156.348123,115.430218 C156.382253,116.281222 156.109215,116.962026 155.52901,117.472628 C154.914676,117.983231 154.061433,118.289592 152.901024,118.357673 L149.522184,118.561914 C148.259386,118.629994 147.269625,118.425753 146.518771,117.949191 C145.767918,117.472628 145.358362,116.825865 145.324232,115.974861 C145.290102,115.532339 145.426621,114.919615 145.665529,114.204772 L148.703072,105.592609 L148.90785,105.013926 C149.453925,103.414038 150.477816,102.563034 151.945392,102.494953 C152.559727,102.460913 153.071672,102.631114 153.515358,102.971516 C153.959044,103.345958 154.232082,103.78848 154.232082,104.333122 C154.266212,104.775645 154.095563,105.490488 153.788396,106.443613 L151.12628,113.932451 Z M151.399317,101.439708 L149.897611,98.648414 L151.501706,95.9252003 L154.641638,95.9932807 L156.143345,98.7845747 L154.539249,101.507788 L151.399317,101.439708 Z" id="Shape" fill="#FFFFFF" fill-rule="nonzero"></path>
                        <path d="M136.177474,120.978766 C135.392491,123.395618 134.573379,125.77843 133.788396,128.195282 L132.627986,131.190817 C129.863481,138.883895 125.802048,142.628314 120.443686,142.628314 C117.645051,142.628314 115.324232,141.607109 113.447099,139.666819 C111.569966,137.72653 110.648464,135.275637 110.648464,132.348183 C110.648464,131.224857 110.819113,130.169612 111.12628,129.114367 C111.228669,128.773965 111.501706,127.957001 112.013652,126.969836 C112.150171,126.697514 113.242321,125.131667 115.051195,123.701979 C118.293515,121.114926 122.593857,121.82977 123.481229,121.82977 L129.351536,121.82977 L130.204778,119.106556 C129.044369,119.88948 127.986348,120.093721 126.962457,120.093721 C125.017065,120.093721 123.447099,119.242717 122.21843,117.74495 C121.023891,116.213142 120.409556,114.204772 120.409556,111.78792 C120.409556,107.83926 121.638225,104.299082 124.095563,101.133346 C126.552901,97.9676106 129.283276,96.4017627 132.354949,96.4017627 C134.573379,96.4017627 136.245734,97.2187268 137.372014,98.852655 C138.225256,97.2187268 139.419795,96.4017627 140.989761,96.4017627 C141.740614,96.4017627 142.389078,96.6740841 142.935154,97.252767 C143.481229,97.8314499 143.754266,98.5122533 143.754266,99.2951772 C143.754266,99.9419405 143.515358,100.792945 143.037543,102.120511 L136.177474,120.978766 Z M127.576792,128.331443 L122.525597,128.331443 C120.784983,128.331443 119.419795,128.025081 118.464164,128.910126 C117.508532,129.79517 117.030717,130.646174 117.030717,132.246062 C117.030717,133.335348 117.372014,134.084231 118.020478,134.833115 C118.668942,135.581999 119.488055,135.88836 120.477816,135.88836 C121.877133,135.88836 123.105802,135.922401 124.163823,134.594834 C125.187713,133.301308 126.348123,131.054656 127.576792,128.331443 Z M132.627986,111.958121 L134.846416,105.86493 C135.017065,105.354328 135.119454,104.945846 135.119454,104.605444 C135.119454,103.992721 134.880546,103.482118 134.40273,103.073636 C133.924915,102.665154 133.31058,102.460913 132.593857,102.460913 C131.296928,102.460913 130.03413,103.311917 128.83959,104.979886 C127.645051,106.681894 127.064846,108.451983 127.064846,110.358233 C127.064846,112.502763 127.952218,113.592049 129.726962,113.592049 C131.262799,113.592049 132.21843,113.047406 132.627986,111.958121 Z" id="Shape" fill="#FFFFFF" fill-rule="nonzero"></path>
                        <path d="M189.078498,100.316382 C191.12628,99.6696191 192.389078,94.3253123 190.921502,89.7979697 C188.054608,80.7432843 175.255973,77.2711869 167.372014,75.1606964 C160.580205,73.3225272 154.744027,72.8459648 150.648464,72.7778844 C147.679181,72.8800049 144.744027,73.0161656 141.774744,73.1182861 C142.901024,71.5183981 144.061433,69.9525503 145.187713,68.3526623 C147.679181,68.2505418 150.204778,68.1143811 152.696246,68.0122606 C156.894198,68.0463007 162.662116,68.3526623 169.419795,69.7142691 C177.064846,71.2460768 182.969283,72.4034426 188.87372,76.8627049 C191.262799,78.6668339 196.68942,82.7856945 198.805461,90.1043312 C200.853242,97.1846867 199.795222,107.328657 194.334471,109.88167 C191.05802,111.413478 187.133106,109.81359 186.450512,109.507228 C180.750853,107.192497 178.87372,101.643949 175.938567,101.677989 C173.924915,101.712029 172.423208,103.720399 172.1843,104.060801 C167.883959,109.949751 179.180887,117.74495 177.064846,129.250527 C176.962457,129.79517 175.324232,137.045726 169.556314,140.483783 C165.358362,143.002756 160.921502,142.900636 159.419795,142.866595 C158.327645,142.832555 154.846416,142.628314 147.78157,139.122177 C146.177474,138.305213 144.914676,137.624409 143.890785,136.977646 C142.798635,136.330883 141.911263,135.71816 141.09215,135.207557 C138.634812,133.607669 138.088737,133.165147 137.269625,132.654544 C135.938567,131.80354 133.856655,130.816375 130.819113,130.305773 C131.262799,128.365483 131.740614,126.459233 132.1843,124.518944 C136.245734,125.097626 139.180887,126.289032 141.023891,127.208117 C145.085324,129.216487 146.860068,131.190817 152.081911,133.369388 C153.31058,133.87999 154.675768,134.322513 156.416382,134.696954 C162.832765,136.092601 165.392491,135.105437 166.552901,134.356553 C167.269625,133.87999 169.078498,132.552424 169.931741,128.910126 C172.354949,118.493833 161.262799,113.387808 163.549488,103.720399 C163.686007,103.209797 165.255973,97.0144858 171.05802,94.1891517 C172.081911,93.6785491 174.095563,92.6913841 176.68942,92.8275448 C183.481229,93.1679465 186.348123,101.167387 189.078498,100.316382 Z" id="Shape" fill="#FFFFFF" fill-rule="nonzero"></path>
                        <path d="M142.457338,99.5674986 C142.389078,99.4313379 141.638225,98.1378114 140.068259,97.9335704 C138.87372,97.7633695 137.713311,98.2739721 136.996587,99.2270969 C136.382253,102.018391 135.631399,105.252207 134.607509,108.894505 C133.924915,111.311357 132.935154,114.579214 131.638225,118.425753 C129.658703,124.416823 128.634812,127.412358 126.860068,130.578094 C125.290102,133.369388 122.798635,137.76057 118.90785,140.347623 C112.116041,144.806885 103.208191,142.424073 89.2150171,138.611574 C89.2150171,138.611574 73.7883959,133.573629 63.890785,129.182447 C63.1399317,128.842045 57.5426621,126.084791 50.2047782,122.714814 C49.5904437,122.442493 48.3959044,121.89785 47.9180887,121.659569 C41.8771331,118.936356 28.7372014,112.979326 14.4709898,115.157897 C9.96587031,115.8387 5.29010239,116.621624 2.52559727,120.366043 C0.716723549,122.782895 -0.580204778,126.833675 1.16040956,130.441933 C2.52559727,133.233227 5.11945392,134.526754 6.10921502,135.003316 C12.5255973,138.066931 19.4539249,135.071396 20.9556314,134.356553 C24.5392491,132.654544 26.5870307,130.305773 28.1228669,128.501643 C31.8430034,124.144502 33.3105802,119.685239 33.9249147,117.098186 C31.5358362,116.451423 29.1467577,115.80466 26.7576792,115.157897 C26.7235495,115.260017 26.6894198,115.396178 26.6211604,115.566379 C26.1774744,116.825865 24.8464164,119.480998 22.9010239,122.544614 C20.9556314,125.608229 18.4300341,128.433563 14.4709898,129.488808 C13.4812287,129.76113 10.0682594,130.646174 8.32764505,128.842045 C7.37201365,127.85488 7.03071672,126.118832 7.64505119,124.927426 C8.25938567,123.77006 9.76109215,123.089256 10.7167235,122.646734 C10.7167235,122.646734 10.8532423,122.578654 10.9556314,122.544614 C11.7406143,122.204212 13.5153584,121.625529 18.3959044,121.046846 C23.1740614,120.468163 25.5972696,120.536244 27.9522184,120.910685 C27.9522184,120.910685 28.3617747,120.978766 28.8054608,121.046846 C34.3686007,122.102091 38.8054608,123.974301 41.6382253,125.369948 C43.105802,126.084791 44.1638225,126.697514 44.5051195,126.901755 C51.6723549,130.986576 63.5153584,135.7522 71.4675768,138.951976 C71.4675768,138.951976 91.8771331,147.121617 102.286689,148.823625 C102.696246,148.891706 103.105802,148.959786 103.105802,148.959786 C105.187713,149.266147 109.795222,149.70867 115.153584,148.721505 C118.634812,148.074741 120.716724,147.121617 121.979522,146.440813 C122.627986,146.100412 124.675768,144.943046 127.098976,142.526194 C127.167235,142.458113 127.269625,142.355993 127.372014,142.253872 C131.05802,138.441373 133.583618,132.756665 133.583618,132.756665 C134.539249,130.646174 135.255973,128.263362 136.65529,123.633899 C138.293515,118.289592 139.112628,115.566379 140.068259,111.583679 C140.853242,108.486023 141.706485,104.435243 142.457338,99.5674986 Z" id="Shape" fill="#FFFFFF" fill-rule="nonzero"></path>
                        <path d="M63.890785,82.5133732 C61.7064846,85.474868 58.1911263,89.5256483 53.0375427,93.065826 C45.8703072,97.9676106 39.0102389,99.4994182 35.0853242,100.044061 L35.5972696,93.9168303 C36.9624573,93.6104688 38.7372014,93.1679465 40.7508532,92.3850226 C42.7303754,91.6361389 46.6211604,89.9681705 50.8532423,86.5981936 C54.2320819,83.9090202 56.6894198,81.0496459 58.3959044,78.7349143 C59.5221843,77.2371468 61.5358362,76.9648254 62.9010239,78.0200707 C64.1979522,78.9731955 64.6416382,80.879445 63.890785,82.5133732 Z" id="Shape" fill="#FFFFFF" fill-rule="nonzero"></path>
                        <g transform="translate(14.334471, 20.083701)" id="Shape" fill-rule="nonzero" fill="#FFFFFF">
                            <path d="M37.78157,21.172986 L43.3788396,34.4146123 C43.6177474,34.9252149 44.0273038,35.6060183 44.6416382,36.2868217 C45.2559727,37.0016653 45.8703072,37.4782277 46.3822526,37.8186294 C45.8020478,40.0993208 45.2559727,42.345972 44.6757679,44.6266635 C43.6860068,44.2181814 42.2525597,43.4692977 40.7849829,42.1757712 C39.3174061,40.8482045 38.4300341,39.4525576 37.9180887,38.533473 L30.2730375,20.1517809 L26.7235495,28.8660645 C25.0170648,33.0530055 23.8225256,35.8783397 23.105802,37.342067 C22.3890785,38.8057943 21.5699659,40.1674011 20.6143345,41.4268874 C19.4539249,42.9927353 17.2013652,45.7840293 13.2764505,47.2817968 C12.1501706,47.724319 10.3071672,48.2689617 7.88395904,48.2349215 C8.0887372,45.9201899 8.25938567,43.5714182 8.46416382,41.2566866 C8.94197952,41.2566866 9.69283276,41.2226464 10.5460751,40.9503251 C12.2866894,40.4056823 13.3788396,39.3163969 14.0614334,38.533473 C15.6313993,36.7293439 17.3720137,33.4274474 19.2491468,28.7979842 L28.3959044,6.19531102 L25.665529,6.19531102 C23.2423208,6.19531102 22.0136519,5.44642727 22.0136519,3.77845892 C22.0136519,2.55301278 22.4232082,1.66796835 23.2764505,1.02120511 C24.1296928,0.374441875 25.3242321,0.0680803409 26.894198,0.0680803409 L35.6996587,0.0680803409 C37.9863481,0.0680803409 39.6928328,0.170200852 40.7508532,0.442522216 C41.8088737,0.71484358 42.8327645,1.25948631 43.8225256,2.0764504 C45.8703072,3.77845892 46.894198,6.19531102 46.894198,9.29296653 C46.894198,9.66740841 46.894198,11.6417383 46.109215,13.6841485 C44.1638225,18.7901741 38.7030717,20.8325843 37.78157,21.172986 Z M31.8088737,16.1350408 L32.559727,16.1350408 C34.5733788,15.9988801 36.0750853,15.6584784 37.0648464,14.977675 C38.9761092,13.7181887 39.9317406,11.98214 39.9317406,9.87164943 C39.9317406,7.45479733 38.7713311,6.16127085 36.4505119,6.16127085 L35.8703072,6.16127085 L31.8088737,16.1350408 Z"></path>
                            <path d="M9.18088737,41.2226464 C9.21501706,43.5714182 9.24914676,45.9201899 9.28327645,48.2349215 C9.01023891,48.2689617 4.3003413,48.6093634 1.53583618,44.8309045 C-0.511945392,42.0396105 0.0341296928,38.9079148 0.170648464,38.0228704 C0.307167235,37.1718661 0.853242321,34.3124918 3.3447099,32.3381619 C4.778157,31.2488765 7.88395904,29.5809081 9.72696246,30.9765551 C10.7167235,31.7254389 11.1262799,33.2232064 10.8532423,34.3805722 C10.6484642,35.2315764 10.0682594,35.8442995 9.21501706,36.7633841 C8.29351536,37.750549 7.71331058,38.0228704 7.44027304,38.9079148 C7.37201365,39.1802362 7.20136519,39.7589191 7.50853242,40.337602 C7.95221843,41.1886063 9.07849829,41.2226464 9.18088737,41.2226464 Z"></path>
                            <path d="M44.5733788,44.6266635 C46.8259386,45.3074669 48.8054608,45.6138284 50.2730375,45.7499891 C52.8668942,46.0223105 54.5733788,45.8521096 55.0511945,45.8180694 C56.7576792,45.6478686 57.7133106,45.5457481 58.8054608,44.9670652 C59.112628,44.7968643 62.2866894,43.0608156 61.8771331,40.8822447 C61.6382253,39.5887182 60.2047782,38.5675131 58.9761092,38.4994328 C58.1228669,38.4653926 57.883959,38.8738747 56.2457338,39.350437 C54.778157,39.7929593 53.5836177,39.8610396 53.3447099,39.8610396 C51.0580205,39.9631601 49.3174061,39.3163969 48.5665529,39.0100353 C47.5767918,38.6015533 46.7918089,38.1590311 46.2457338,37.8186294 C45.6996587,40.0993208 45.1535836,42.345972 44.5733788,44.6266635 Z"></path>
                        </g>
                        <path d="M39.112628,96.7762046 C37.0648464,95.6188388 35.0511945,94.4274328 33.003413,93.270067 C35.0170648,87.4491979 35.4266212,85.679109 35.3583618,85.2365868 C35.3583618,85.2025466 35.2559727,84.3175022 35.2559727,84.3175022 L35.2559727,84.3175022 C35.0853242,83.7388193 34.7440273,83.1941766 34.2320819,82.7176142 C33.4812287,82.0027706 32.559727,81.6623689 31.5358362,81.6283288 C29.6928328,81.5942886 28.0204778,82.4112527 26.5187713,84.079221 C25.0170648,85.7471894 24.2662116,87.6193988 24.2320819,89.6958491 C24.2320819,90.3426124 24.3686007,90.8872551 24.7440273,92.1127013 C25.5290102,94.6316739 25.8020478,94.5976337 25.8020478,95.3124773 C25.7679181,96.5719636 24.9488055,97.7633695 23.9249147,98.3760926 C22.3890785,99.2951772 20.6484642,98.7505345 19.6587031,97.8654901 C18.9419795,97.252767 18.7030717,96.5379234 18.225256,95.3465174 C17.6109215,93.8487499 17.3037543,92.1807816 17.337884,90.3426124 C17.3720137,86.0195107 18.9078498,82.275092 21.9112628,79.075316 C24.9146758,75.9095801 28.4300341,74.3437323 32.4232082,74.4118126 C35.3924915,74.4458528 37.883959,75.4330177 39.8634812,77.3392673 C41.8430034,79.2455168 42.7986348,81.6283288 42.7645051,84.4877031 C42.7303754,86.4960731 42.2525597,88.7767645 41.2627986,91.261697 C41.1262799,91.7722995 40.9897611,92.2829021 40.8532423,92.7935047 C40.2730375,94.1210713 39.6928328,95.448638 39.112628,96.7762046 Z" id="Shape" fill="#FFFFFF" fill-rule="nonzero"></path>
                        <path d="M33.4129693,119.75332 C35.6996587,110.562474 38.0204778,101.371628 40.3071672,92.1807816 C40.6143345,90.9893756 39.9658703,88.3002022 38.668942,87.7895996 C36.6894198,87.0407159 33.5836177,91.9765406 33.2764505,92.5211833 C31.0238908,100.248302 28.7713311,107.941381 26.552901,115.668499 C28.8054608,117.030106 31.1262799,118.391713 33.4129693,119.75332 Z" id="Shape" fill="#FFFFFF" fill-rule="nonzero"></path>
                        <g transform="translate(38.566553, 95.312477)" id="Shape" fill-rule="nonzero" fill="#FFFFFF">
                            <path d="M10.2389078,6.84207426 C11.2286689,9.42912722 12.3890785,12.2204212 13.8225256,15.1478759 C15.3242321,18.2455314 16.894198,21.0027852 18.3959044,23.4536774 C16.109215,24.6450834 13.8225256,25.8024492 11.5699659,26.9938552 C10.5460751,25.0876056 9.07849829,22.364392 7.47440273,18.9944151 C5.87030717,15.6584784 4.67576792,13.1054656 3.48122867,10.4843725 C2.15017065,7.55691784 1.05802048,5.03794523 0.273037543,3.19977602 C2.59385666,2.17857091 4.94880546,1.1573658 7.26962457,0.170200852 C8.25938567,2.34877176 9.24914676,4.59542301 10.2389078,6.84207426 Z"></path>
                            <path d="M11.5358362,26.7896141 C13.3105802,29.95535 15.3924915,31.146756 16.3481229,31.555238 C17.5426621,32.0998807 18.8737201,32.2020013 21.5358362,32.4402824 C24.0955631,32.6785636 25.3924915,32.5083628 26.0068259,32.4062423 C26.9624573,32.2360414 28.1228669,32.0318004 29.4539249,31.2148363 C30.4778157,30.6021132 31.9795222,29.7170688 32.2866894,28.0150603 C32.3208191,27.8108193 32.5255973,26.7896141 31.9795222,25.8364894 C31.5699659,25.0876056 30.9556314,24.8152843 30.6484642,24.6450834 C29.3174061,24.0323603 27.9180887,24.4748826 26.8600683,24.8152843 C26.4505119,24.9514449 25.5631399,25.2578065 24.334471,25.3258868 L24.1979522,25.3258868 C22.0477816,25.3939672 20.1706485,24.4748826 20.1706485,24.4748826 C19.7610922,24.3046817 19.112628,23.9983202 18.4982935,23.4196373 C18.1569966,23.0792356 17.9522184,22.7047937 17.7474403,22.3984322 C16.8259386,22.772874 15.6313993,23.3175168 14.3686007,24.2366014 C13.1399317,25.0876056 12.21843,26.0066902 11.5358362,26.7896141 Z"></path>
                        </g>
                        <path d="M121.911263,45.9201899 C122.696246,45.6819088 123.37884,45.5797882 123.993174,45.5797882 C126.006826,45.6138284 127.610922,46.3967523 128.87372,47.92856 C130.102389,49.4944078 130.716724,51.4687377 130.682594,53.91963 C130.614334,58.6512137 128.805461,62.3275521 125.187713,64.9486452 C123.924915,65.8677298 122.627986,66.310252 121.262799,66.2762119 L118.805461,66.2421717 C117.098976,66.2081315 115.631399,65.5613683 114.43686,64.301882 C113.686007,65.5613683 112.525597,66.1740914 110.989761,66.1400512 C110.238908,66.1400512 109.624573,65.8677298 109.112628,65.3571273 C108.600683,64.8465247 108.361775,64.2338016 108.361775,63.5189581 C108.361775,62.9743153 108.498294,62.3615923 108.805461,61.6807889 L109.112628,60.9659453 L120.375427,33.5636081 L120.682594,32.8147243 C121.535836,30.8403944 122.798635,29.8532295 124.505119,29.8872697 C125.290102,29.8872697 125.938567,30.159591 126.450512,30.6361534 C126.962457,31.146756 127.235495,31.7254389 127.235495,32.4402824 C127.235495,32.9849252 127.098976,33.5976482 126.791809,34.2784516 L126.484642,35.0273354 L121.911263,45.9201899 Z M116.587031,58.9235351 C117.440273,60.0809009 118.464164,60.6595838 119.624573,60.6595838 C120.443686,60.6595838 121.16041,60.4553427 121.740614,59.9787803 C122.559727,59.3320171 123.242321,58.3788923 123.856655,57.0853659 C124.47099,55.7918394 124.778157,54.6344736 124.812287,53.6132685 C124.812287,52.8303445 124.607509,52.1495411 124.163823,51.6389386 C123.720137,51.128336 123.139932,50.8560147 122.389078,50.8560147 C120.750853,50.8219745 119.419795,52.0814608 118.395904,54.5663932 L116.587031,58.9235351 Z" id="Shape" fill="#FFFFFF" fill-rule="nonzero"></path>
                        <g transform="translate(94.880546, 0.000000)" id="Shape" stroke="#FFFFFF">
                            <path d="M0.136518771,8.81640415 L5.87030717,14.6713135"></path>
                            <path d="M2.79863481,0.170200852 L8.97610922,14.6713135"></path>
                            <path d="M79.4197952,18.8242143 L67.4744027,28.4916227"></path>
                            <path d="M69.0784983,29.95535 L77.9522184,26.2449714"></path>
                        </g>
                        <path d="M163.427979,54.267893 C163.427979,54.267893 155.802048,33.155126 154.163823,29.0362654 L109.385666,17.2924066 L85.4948805,37.8186294 L104.774417,71.6594056" id="Shape" stroke="#B12C2C" stroke-width="3"></path>
                        <path d="M161.05802,60.9319051 L164.880546,58.6171735 C164.641638,57.6300086 163.208191,53.9536702 162.969283,52.9665052" id="Shape" stroke="#B12C2C" stroke-width="3"></path>
                        <path d="M103.549488,69.2717469 C106.928328,75.5351382 110.204778,80.675204 113.583618,86.9045552 L162.348833,60.2148415" id="Shape" stroke="#B12C2C" stroke-width="3"></path>
                        <path d="M75.1194539,77.2711869 L73.4812287,77.2711869 C73.7201365,75.296857 74.8122867,74.3096921 76.7235495,74.3096921 L79.9658703,74.3096921 C80.8532423,74.3096921 81.6040956,74.6160536 82.2525597,75.1947365 C82.9010239,75.7734194 83.2081911,76.488263 83.2081911,77.3052271 L83.2081911,78.0541109 C83.2081911,79.075316 82.1501706,80.4028826 80.0682594,82.0368108 L79.8634812,82.2070116 C77.78157,83.8409398 76.7235495,85.1344663 76.7235495,86.0875911 L76.7235495,86.2237518 L83.2081911,86.2237518 L83.2081911,87.7215193 L73.4812287,87.7215193 L73.4812287,86.2237518 C73.4812287,85.2025466 74.5392491,83.87498 76.6211604,82.2070116 L76.8259386,82.0368108 C78.9078498,80.4028826 79.9658703,79.075316 79.9658703,78.0541109 L79.9658703,77.2711869 C79.9658703,76.8627049 79.7952218,76.5223032 79.4880546,76.2159416 C79.1467577,75.9095801 78.7713311,75.7734194 78.3617747,75.7734194 L76.7235495,75.7734194 C75.7337884,75.8074596 75.1877133,76.284022 75.1194539,77.2711869 Z" id="Shape" stroke="#FFFFFF" fill-opacity="0" fill="#FFFFFF" fill-rule="nonzero"></path>
                        <path d="M89.8976109,74.3096921 L93.1399317,74.3096921 C94.0273038,74.3096921 94.778157,74.6160536 95.4266212,75.1947365 C96.0750853,75.7734194 96.3822526,76.488263 96.3822526,77.3052271 L96.3822526,84.7600244 C96.3822526,85.5769885 96.0750853,86.2577919 95.4266212,86.8364748 C94.778157,87.4151577 94.0273038,87.7215193 93.1399317,87.7215193 L89.8976109,87.7215193 C89.0102389,87.7215193 88.2593857,87.4151577 87.6109215,86.8364748 C86.9624573,86.2577919 86.6552901,85.5429484 86.6552901,84.7259843 L86.6552901,77.2711869 C86.6552901,76.4542228 86.9624573,75.7734194 87.6109215,75.1606964 C88.225256,74.6160536 89.0102389,74.3096921 89.8976109,74.3096921 Z M93.105802,76.7946245 C92.8668942,76.1478613 92.3549488,75.8074596 91.5017065,75.8074596 C91.0580205,75.8074596 90.6825939,75.9095801 90.3412969,76.1478613 C90.0341297,76.3861425 89.8634812,76.6584639 89.8634812,76.9648254 L89.8634812,80.9815655 L93.105802,76.7946245 Z M89.9317406,84.8621449 C90,85.3046672 90.1706485,85.6450689 90.443686,85.8833501 C90.7167235,86.1216313 91.0580205,86.2237518 91.5017065,86.2237518 C91.9453925,86.2237518 92.3208191,86.0535509 92.662116,85.7471894 C92.9692833,85.4408278 93.1399317,85.066386 93.1399317,84.6238638 L93.1399317,79.1774365 L89.9317406,84.8621449 Z" id="Shape" stroke="#FFFFFF" fill-opacity="0" fill="#FFFFFF" fill-rule="nonzero"></path>
                        <polygon id="Shape" stroke="#FFFFFF" fill-opacity="0" fill="#FFFFFF" fill-rule="nonzero" points="102.081911 87.7215193 102.081911 77.3052271 100.443686 77.3052271 100.443686 75.8414998 103.686007 74.3437323 105.290102 74.3437323 105.290102 87.7555594"></polygon>
                        <path d="M109.658703,74.3096921 L119.385666,74.3096921 L119.385666,77.2711869 L118.566553,78.7689544 L117.74744,80.2667219 C116.65529,82.3431723 116.109215,83.8409398 116.109215,84.7259843 L116.109215,87.6874791 L112.866894,87.6874791 L112.866894,84.7259843 C112.866894,83.7388193 113.412969,82.2410518 114.505119,80.2667219 L116.109215,77.2711869 L116.109215,75.8074596 L109.624573,75.8074596 L109.658703,74.3096921 Z" id="Shape" stroke="#FFFFFF" fill-opacity="0" fill="#FFFFFF" fill-rule="nonzero"></path>
                        <g transform="translate(111.604096, 2.042410)" id="Shape" fill-rule="nonzero" fill="#FFFFFF">
                            <polygon points="0.307167235 10.2460913 1.9112628 0.272321364 4.12969283 0.646763239 3.48122867 4.73158369 7.71331058 1.25948631 9.65870307 1.59988801 4.02730375 5.78682898 7.64505119 11.5396178 5.80204778 11.1992161 3.10580205 6.77399392 2.49146758 10.6545734"></polygon>
                            <path d="M14.4709898,7.65903835 L14.7098976,6.50167256 C14.778157,6.19531102 14.7098976,5.88894949 14.5392491,5.61662813 C14.3686007,5.34430676 14.0955631,5.17410591 13.7883959,5.14006574 L12.6279863,4.93582472 C11.9453925,4.8337042 11.4675768,5.14006574 11.2286689,5.92298966 L10.0682594,5.71874864 C10.5460751,4.18694097 11.4675768,3.54017773 12.8668942,3.74441875 L15.1877133,4.1529008 C15.8361775,4.25502131 16.3139932,4.59542301 16.6894198,5.14006574 C17.0648464,5.68470847 17.1672355,6.26339136 17.0648464,6.9101546 L15.9044369,12.7650639 L13.5836177,12.3565819 L13.8225256,11.1651759 C13.5836177,11.9480998 13.105802,12.2544614 12.4232082,12.1523409 L11.2627986,11.9480998 C10.6143345,11.8459793 10.1365188,11.5055776 9.76109215,10.9949751 C9.38566553,10.4503323 9.28327645,9.87164943 9.38566553,9.22488619 L9.38566553,9.22488619 C9.5221843,8.57812295 9.86348123,8.0675204 10.4095563,7.69307852 C10.9556314,7.31863665 11.5358362,7.18247597 12.1843003,7.28459648 L14.4709898,7.65903835 Z M14.2320819,8.85044432 L13.0716724,8.6462033 C12.7645051,8.57812295 12.4573379,8.6462033 12.1843003,8.85044432 C11.9112628,9.05468534 11.7406143,9.29296653 11.6723549,9.59932807 L11.6723549,9.59932807 C11.6040956,9.9056896 11.6723549,10.2120511 11.8430034,10.4843725 C12.0136519,10.7566939 12.2866894,10.9268947 12.5938567,10.9609349 C12.9010239,11.0290152 13.2081911,10.9609349 13.4812287,10.7566939 C13.7542662,10.5524528 13.9249147,10.3141716 13.9931741,10.0078101 L14.2320819,8.85044432 Z"></path>
                            <path d="M18.2935154,13.3097066 L20.2730375,5.92298966 L22.3549488,6.39955205 L22.0819113,7.45479733 C22.21843,7.11439563 22.3890785,6.87611443 22.6279863,6.73995375 C22.8668942,6.60379307 23.105802,6.5697529 23.4129693,6.63783324 L24.4709898,6.87611443 C25.0511945,7.01227511 25.4948805,7.31863665 25.7679181,7.8292392 C26.0750853,8.33984176 26.1433447,8.88448449 25.9726962,9.46316739 L24.5733788,14.7393938 L22.4914676,14.2628314 L23.890785,8.986605 C23.9590444,8.68024347 23.9249147,8.4079221 23.7883959,8.16964091 C23.6518771,7.93135972 23.4129693,7.76115886 23.1399317,7.69307852 C22.8668942,7.62499818 22.559727,7.65903835 22.3208191,7.8292392 C22.0477816,7.99944006 21.8771331,8.20368108 21.8088737,8.51004261 L20.4095563,13.786269 L18.2935154,13.3097066 Z"></path>
                            <path d="M34.6757679,11.5055776 L33.5153584,11.1651759 C33.6860068,10.3482118 33.447099,9.87164943 32.8327645,9.66740841 C32.4232082,9.5652879 32.0819113,9.53124773 31.8088737,9.63336824 C31.5358362,9.73548875 31.3651877,9.93972977 31.2286689,10.2801315 C31.1262799,10.6205332 31.5017065,11.2332563 32.4232082,12.186381 C33.1740614,12.9352648 33.5494881,13.5139477 33.5836177,13.8883895 C33.6177474,14.2628314 33.5494881,14.6372733 33.4129693,14.977675 C33.1740614,15.6244382 32.7645051,16.1010006 32.1501706,16.4414023 C31.5358362,16.781804 30.887372,16.8498844 30.2730375,16.6456434 L29.112628,16.3052416 C27.5767918,15.8627194 27.0648464,14.8755545 27.6109215,13.3097066 L28.7713311,13.6501084 C28.6006826,14.4670724 28.8054608,14.9436348 29.4539249,15.1138357 C29.8634812,15.2159562 30.2047782,15.2499964 30.4778157,15.1478759 C30.7508532,15.0457553 30.9215017,14.8415143 31.0580205,14.5011126 C31.1604096,14.1607109 30.7849829,13.5479878 29.8634812,12.5948631 C29.112628,11.8459793 28.7372014,11.2672964 28.7030717,10.8928545 C28.668942,10.5184127 28.7372014,10.1439708 28.8737201,9.80356909 C29.112628,9.15680585 29.5221843,8.6462033 30.1365188,8.33984176 C30.7508532,7.99944006 31.3993174,7.93135972 32.0136519,8.13560074 L33.1740614,8.47600244 C34.6416382,8.91852466 35.1194539,9.93972977 34.6757679,11.5055776 Z"></path>
                            <path d="M44.2320819,21.6835886 L47.78157,13.6841485 L49.8634812,14.569193 L46.3139932,22.568633 L44.2320819,21.6835886 Z M48.2935154,12.5608229 L48.8054608,11.4034571 L50.887372,12.2885015 L50.3754266,13.4458673 L48.2935154,12.5608229 Z"></path>
                            <path d="M40.887372,14.7053536 L41.2286689,13.582028 C41.331058,13.2756665 41.2969283,12.9693049 41.1262799,12.6629434 C40.9556314,12.390622 40.7508532,12.186381 40.443686,12.0842605 L39.3174061,11.777899 C38.6348123,11.573658 38.1569966,11.8800195 37.8156997,12.5948631 L36.6894198,12.2885015 C37.337884,10.8247742 38.3276451,10.2460913 39.6587031,10.6205332 L41.9453925,11.2672964 C42.559727,11.4374973 43.0375427,11.8119391 43.3447099,12.390622 C43.6518771,12.9693049 43.7201365,13.582028 43.5153584,14.1947511 L41.7406143,19.9134997 L39.4539249,19.2667365 L39.7952218,18.1093707 C39.4539249,18.8582544 38.9761092,19.1305758 38.2935154,18.9263348 L37.1672355,18.6199732 C36.552901,18.4497724 36.0750853,18.0753305 35.7679181,17.4966476 C35.4607509,16.9179647 35.3924915,16.3392818 35.5972696,15.6925186 L35.5972696,15.6925186 C35.8020478,15.0797955 36.1774744,14.6032331 36.7576792,14.2628314 C37.337884,13.9564699 37.9522184,13.8543494 38.5665529,14.0245502 L40.887372,14.7053536 Z M40.5460751,15.8627194 L39.4197952,15.5563579 C39.112628,15.4542374 38.8054608,15.4882776 38.4982935,15.6584784 C38.1911263,15.8286793 38.0204778,16.0669605 37.9180887,16.373322 L37.9180887,16.373322 C37.8156997,16.6796835 37.8498294,16.9860451 37.9863481,17.2583664 C38.1228669,17.5306878 38.3617747,17.7349288 38.7030717,17.8370493 C39.0102389,17.9391698 39.3174061,17.9051297 39.6245734,17.7349288 C39.9317406,17.564728 40.1023891,17.3264468 40.2047782,17.0200852 L40.5460751,15.8627194 Z"></path>
                        </g>
                    </g>
                    <path d="M153.276451,67.2688672 C152.491468,69.2091569 151.706485,71.1494466 150.921502,73.0897363 C150.409556,74.621544 149.453925,76.6639542 148.122867,79.1829268 C145.767918,83.6421892 142.320819,85.8548002 137.849829,85.8548002 C135.119454,85.8548002 132.832765,85.003796 130.955631,83.3017875 C129.112628,81.5997789 128.156997,79.4892884 128.156997,76.9362756 C128.156997,75.1661867 128.668942,73.5322585 129.658703,72.0004509 C130.682594,70.4686432 131.979522,69.7537996 133.651877,69.0049159 C135.52901,68.1198714 138.327645,68.1198714 142.047782,68.1198714 L146.416382,68.1198714 L147.201365,65.7710997 C145.870307,66.3157424 144.675768,66.3838227 143.549488,66.3838227 C141.638225,66.3838227 140.102389,65.8051398 138.90785,64.8179749 C137.713311,63.83081 137.133106,62.5372835 137.133106,60.9714356 C137.133106,60.0183109 137.508532,58.5886237 138.293515,56.6823742 L141.228669,49.465858 L141.535836,48.7169743 C142.389078,46.7086042 143.720137,45.6873991 145.52901,45.6873991 C146.313993,45.6873991 146.962457,45.9256803 147.508532,46.4362829 C148.020478,46.9468854 148.293515,47.5596085 148.293515,48.3425324 C148.293515,48.853135 148.054608,49.7041392 147.610922,50.861505 L144.982935,57.2610571 C144.573379,58.2822622 144.368601,58.9630656 144.334471,59.2694271 C144.266212,60.1544715 144.846416,60.5629536 146.006826,60.5629536 C146.825939,60.5629536 147.679181,60.3246724 148.532423,59.84811 C149.385666,59.3715476 149.931741,58.8269049 150.170648,58.2141818 L153.754266,49.465858 L154.027304,48.7169743 C154.880546,46.7086042 156.211604,45.6873991 158.020478,45.6873991 C158.805461,45.6873991 159.453925,45.9256803 160,46.4362829 C160.511945,46.9468854 160.784983,47.5596085 160.784983,48.3084922 C160.784983,48.8190948 160.648464,49.4318179 160.375427,50.1126213 L160.068259,50.8274648 L153.276451,67.2688672 Z M144.505119,73.9067004 L140.750853,73.9067004 C136.65529,73.9067004 134.573379,74.7917448 134.573379,77.3447576 C134.573379,78.2638422 134.846416,78.7744448 135.426621,79.3190875 C135.972696,79.8637302 136.757679,80.0339311 137.679181,80.0339311 C138.976109,80.0339311 140.136519,79.8637302 141.16041,78.8765653 C142.1843,77.8894004 143.31058,76.629914 144.505119,73.9067004 Z" id="Shape" fill="#FFFFFF" fill-rule="nonzero"></path>
                    <path d="M96.8259386,60.2906322 L99.556314,60.3246724 C100.648464,60.3246724 101.399317,60.5289134 101.877133,60.9033553 C102.354949,61.2777972 102.559727,61.8905202 102.525597,62.7074843 C102.525597,63.7967698 102.150171,64.647774 101.433447,65.2264569 C100.716724,65.83918 99.7269625,66.1115014 98.4982935,66.1115014 L94.2662116,66.043421 C92.9351536,66.043421 92.0819113,65.430698 91.6382253,64.2733322 C90.7508532,65.430698 89.6587031,65.9753407 88.3617747,65.9753407 L84.9146758,65.9413005 C83.5153584,65.9072604 82.3890785,65.430698 81.4675768,64.443533 C80.5802048,63.4563681 80.1365188,62.2309219 80.1365188,60.7331544 C80.1365188,59.8821502 80.3754266,58.8949852 80.7849829,57.7716596 L84.0955631,48.9212153 C85.0170648,46.470323 86.2798635,45.2448769 87.8156997,45.2789171 C88.4982935,45.2789171 89.0784983,45.5512384 89.5221843,46.0278008 C90,46.5384034 90.2047782,47.1170863 90.2047782,47.8319298 C90.2047782,48.3765726 90.0682594,48.9892956 89.7952218,49.670099 L89.5221843,50.3849426 L86.9624573,57.1929767 L86.6894198,57.9759006 C86.552901,58.452463 86.4505119,58.7928647 86.4505119,58.9971057 C86.4163823,59.7800297 86.8600683,60.1885117 87.8156997,60.2225519 C89.7610922,60.2565921 91.0921502,59.3715476 91.7406143,57.6014588 L94.8122867,49.4318179 C95.7337884,46.9468854 96.996587,45.7214393 98.6006826,45.7554794 C99.2491468,45.7554794 99.8293515,46.0278008 100.307167,46.5384034 C100.784983,47.0490059 100.989761,47.6276888 100.989761,48.3425324 C100.989761,48.8871751 100.750853,49.7381794 100.341297,50.8955452 L96.8259386,60.2906322 Z" id="Shape" fill="#FFFFFF" fill-rule="nonzero"></path>
                </g>
            </g>
        </g>
    </g>
</svg>